<svg width="773" height="493" viewBox="0 0 773 493" fill="none" xmlns="http://www.w3.org/2000/svg">
<g clip-path="url(#clip0_16_1438)">
<path d="M663.612 398.552H83.5551C79.5955 398.548 75.7993 396.952 72.9994 394.115C70.1995 391.278 68.6246 387.431 68.6201 383.419V20.9977C68.6233 18.0583 69.7771 15.2402 71.8283 13.1617C73.8795 11.0832 76.6606 9.91403 79.5615 9.91064H667.416C670.367 9.91404 673.196 11.1034 675.283 13.2179C677.369 15.3323 678.543 18.1991 678.547 21.1894V383.419C678.542 387.431 676.967 391.278 674.167 394.115C671.367 396.952 667.571 398.548 663.612 398.552Z" fill="#F2F2F2"/>
<path d="M642.452 379.872H101.854C93.9297 379.872 87.4827 373.755 87.4827 366.236V50.6347C87.4827 45.0583 92.2601 40.5212 98.1323 40.5212H645.997C651.967 40.5212 656.823 45.133 656.823 50.8013V366.236C656.823 373.755 650.376 379.872 642.452 379.872Z" fill="white"/>
<path d="M678.339 22.8835H68.4106V15.1789C68.4164 11.1534 69.9978 7.29451 72.8078 4.4489C75.6179 1.6033 79.4272 0.00332334 83.4 0H663.349C667.322 0.00330396 671.131 1.60326 673.942 4.44887C676.752 7.29449 678.333 11.1534 678.339 15.1789V22.8835Z" fill="#DC1D08"/>
<path d="M95.6516 15.3931C97.7928 15.3931 99.5287 13.6342 99.5287 11.4645C99.5287 9.29478 97.7928 7.53589 95.6516 7.53589C93.5103 7.53589 91.7744 9.29478 91.7744 11.4645C91.7744 13.6342 93.5103 15.3931 95.6516 15.3931Z" fill="white"/>
<path d="M110.368 15.3931C112.509 15.3931 114.245 13.6342 114.245 11.4645C114.245 9.29478 112.509 7.53589 110.368 7.53589C108.227 7.53589 106.491 9.29478 106.491 11.4645C106.491 13.6342 108.227 15.3931 110.368 15.3931Z" fill="white"/>
<path d="M125.085 15.3931C127.226 15.3931 128.962 13.6342 128.962 11.4645C128.962 9.29478 127.226 7.53589 125.085 7.53589C122.944 7.53589 121.208 9.29478 121.208 11.4645C121.208 13.6342 122.944 15.3931 125.085 15.3931Z" fill="white"/>
<path d="M356.161 339.152H168.036C163.836 339.147 159.81 337.454 156.841 334.445C153.871 331.436 152.201 327.357 152.196 323.101V92.7518C152.199 89.5692 153.449 86.5181 155.669 84.2676C157.89 82.0172 160.901 80.7512 164.042 80.7476H359.966C363.157 80.7513 366.216 82.0374 368.472 84.3238C370.729 86.6101 371.998 89.7101 372.002 92.9434V323.101C371.997 327.357 370.326 331.436 367.357 334.445C364.387 337.454 360.361 339.147 356.161 339.152ZM164.042 82.5819C161.381 82.585 158.83 83.6575 156.949 85.564C155.067 87.4706 154.009 90.0555 154.006 92.7518V323.101C154.01 326.87 155.49 330.484 158.12 333.149C160.75 335.814 164.316 337.313 168.036 337.318H356.161C359.881 337.313 363.447 335.814 366.077 333.149C368.708 330.484 370.187 326.87 370.191 323.101V92.9434C370.188 90.1964 369.11 87.5627 367.193 85.6202C365.276 83.6777 362.677 82.585 359.966 82.5819H164.042Z" fill="#CCCCCC"/>
<path d="M182.518 323.101H341.679C345.52 323.101 349.204 321.555 351.92 318.803C354.636 316.051 356.161 312.319 356.161 308.427V111.651C356.161 107.759 354.636 104.026 351.92 101.274C349.204 98.5221 345.52 96.9761 341.679 96.9761H182.518C178.677 96.9761 174.994 98.5221 172.278 101.274C169.562 104.026 168.036 107.759 168.036 111.651V308.427C168.036 312.319 169.562 316.051 172.278 318.803C174.994 321.555 178.677 323.101 182.518 323.101Z" fill="#E6E6E6"/>
<path d="M305.998 137.124H218.199C216.638 137.124 215.142 136.496 214.038 135.378C212.935 134.26 212.315 132.744 212.315 131.163C212.315 129.581 212.935 128.065 214.038 126.947C215.142 125.829 216.638 125.201 218.199 125.201H305.998C307.559 125.201 309.055 125.829 310.159 126.947C311.262 128.065 311.882 129.581 311.882 131.163C311.882 132.744 311.262 134.26 310.159 135.378C309.055 136.496 307.559 137.124 305.998 137.124Z" fill="white"/>
<path d="M305.998 266.444H218.199C216.638 266.444 215.142 265.816 214.038 264.698C212.935 263.58 212.315 262.064 212.315 260.483C212.315 258.902 212.935 257.385 214.038 256.267C215.142 255.149 216.638 254.521 218.199 254.521H305.998C307.559 254.521 309.055 255.149 310.159 256.267C311.262 257.385 311.882 258.902 311.882 260.483C311.882 262.064 311.262 263.58 310.159 264.698C309.055 265.816 307.559 266.444 305.998 266.444Z" fill="white"/>
<path d="M305.998 294.877H218.199C216.638 294.877 215.142 294.248 214.038 293.13C212.935 292.012 212.315 290.496 212.315 288.915C212.315 287.334 212.935 285.817 214.038 284.699C215.142 283.581 216.638 282.953 218.199 282.953H305.998C307.559 282.953 309.055 283.581 310.159 284.699C311.262 285.817 311.882 287.334 311.882 288.915C311.882 290.496 311.262 292.012 310.159 293.13C309.055 294.248 307.559 294.877 305.998 294.877Z" fill="white"/>
<path d="M262.551 224.713C282.047 224.713 297.852 208.699 297.852 188.944C297.852 169.189 282.047 153.175 262.551 153.175C243.055 153.175 227.25 169.189 227.25 188.944C227.25 208.699 243.055 224.713 262.551 224.713Z" fill="white"/>
<path d="M489.639 156.167L474.219 159.463C474.083 159.492 473.955 159.552 473.846 159.639C473.737 159.726 473.649 159.837 473.589 159.964C473.529 160.091 473.499 160.23 473.5 160.371C473.502 160.512 473.535 160.65 473.598 160.775L475.035 163.644L405.298 199.512C405.192 199.566 405.098 199.641 405.02 199.733C404.943 199.824 404.884 199.93 404.847 200.045C404.811 200.159 404.796 200.28 404.805 200.4C404.815 200.52 404.847 200.637 404.901 200.744C404.955 200.852 405.029 200.947 405.119 201.026C405.209 201.104 405.314 201.164 405.427 201.201C405.54 201.238 405.659 201.253 405.777 201.244C405.896 201.234 406.012 201.202 406.118 201.147L475.854 165.279L477.291 168.148C477.354 168.273 477.445 168.382 477.556 168.467C477.667 168.551 477.796 168.608 477.932 168.634C478.069 168.66 478.209 168.654 478.343 168.616C478.476 168.578 478.6 168.509 478.703 168.415L490.431 157.747C490.579 157.612 490.68 157.432 490.716 157.233C490.753 157.035 490.724 156.83 490.634 156.649C490.543 156.469 490.397 156.325 490.217 156.237C490.038 156.15 489.834 156.126 489.639 156.167Z" fill="#E6E6E6"/>
<path d="M489.639 245.322L474.219 242.026C474.083 241.997 473.955 241.937 473.846 241.85C473.737 241.763 473.649 241.652 473.589 241.525C473.529 241.398 473.499 241.259 473.5 241.118C473.502 240.977 473.535 240.839 473.598 240.713L475.035 237.845L405.298 201.977C405.192 201.923 405.098 201.848 405.02 201.756C404.943 201.665 404.884 201.559 404.847 201.444C404.811 201.33 404.796 201.209 404.805 201.089C404.815 200.969 404.847 200.852 404.901 200.744C404.955 200.637 405.029 200.541 405.119 200.463C405.209 200.385 405.314 200.325 405.427 200.288C405.54 200.25 405.659 200.236 405.777 200.245C405.896 200.254 406.012 200.287 406.118 200.342L475.854 236.21L477.291 233.341C477.354 233.216 477.445 233.106 477.556 233.022C477.667 232.938 477.796 232.88 477.932 232.855C478.069 232.829 478.209 232.835 478.343 232.873C478.476 232.911 478.6 232.98 478.703 233.074L490.431 243.742C490.579 243.877 490.679 244.057 490.716 244.256C490.753 244.454 490.724 244.659 490.633 244.839C490.543 245.019 490.397 245.164 490.217 245.251C490.038 245.339 489.834 245.363 489.639 245.322Z" fill="#E6E6E6"/>
<path d="M540.469 176.578C536.53 176.578 532.68 175.394 529.405 173.177C526.131 170.96 523.578 167.809 522.071 164.122C520.564 160.435 520.169 156.378 520.938 152.464C521.706 148.55 523.603 144.954 526.388 142.132C529.173 139.31 532.721 137.389 536.584 136.61C540.446 135.832 544.45 136.231 548.089 137.758C551.728 139.286 554.838 141.872 557.026 145.19C559.214 148.508 560.382 152.409 560.382 156.4C560.376 161.75 558.276 166.878 554.543 170.661C550.81 174.444 545.748 176.572 540.469 176.578ZM540.469 138.057C536.888 138.057 533.388 139.133 530.411 141.148C527.434 143.164 525.114 146.029 523.743 149.38C522.373 152.732 522.015 156.42 522.713 159.979C523.412 163.537 525.136 166.805 527.668 169.371C530.199 171.936 533.425 173.683 536.937 174.391C540.448 175.099 544.088 174.735 547.396 173.347C550.704 171.959 553.531 169.608 555.521 166.591C557.51 163.575 558.572 160.028 558.572 156.4C558.566 151.537 556.657 146.874 553.263 143.435C549.869 139.997 545.268 138.062 540.469 138.057Z" fill="#E6E6E6"/>
<path d="M540.469 265.543C536.53 265.543 532.68 264.359 529.405 262.142C526.131 259.925 523.578 256.774 522.071 253.087C520.564 249.4 520.169 245.343 520.938 241.429C521.706 237.515 523.603 233.919 526.388 231.097C529.173 228.276 532.721 226.354 536.584 225.575C540.446 224.797 544.45 225.196 548.089 226.723C551.728 228.251 554.838 230.837 557.026 234.155C559.214 237.473 560.382 241.374 560.382 245.365C560.376 250.715 558.276 255.843 554.543 259.626C550.81 263.409 545.748 265.537 540.469 265.543ZM540.469 227.022C536.888 227.022 533.388 228.098 530.411 230.113C527.434 232.129 525.114 234.994 523.743 238.345C522.373 241.697 522.015 245.386 522.713 248.944C523.412 252.502 525.136 255.77 527.668 258.336C530.199 260.901 533.425 262.648 536.937 263.356C540.448 264.064 544.088 263.701 547.396 262.312C550.704 260.924 553.531 258.573 555.521 255.556C557.51 252.54 558.572 248.993 558.572 245.365C558.566 240.502 556.657 235.839 553.263 232.401C549.869 228.962 545.268 227.027 540.469 227.022Z" fill="#E6E6E6"/>
<path d="M538.89 166.343C538.315 166.344 537.755 166.155 537.294 165.806L537.266 165.784L531.256 161.125C530.977 160.909 530.744 160.639 530.568 160.332C530.393 160.024 530.279 159.684 530.233 159.332C530.187 158.98 530.21 158.622 530.3 158.278C530.391 157.935 530.548 157.613 530.761 157.331C530.974 157.049 531.241 156.812 531.544 156.634C531.848 156.457 532.183 156.341 532.531 156.294C532.879 156.248 533.232 156.271 533.571 156.363C533.91 156.455 534.227 156.613 534.506 156.83L538.399 159.855L547.598 147.694C547.811 147.412 548.077 147.175 548.381 146.998C548.684 146.82 549.02 146.704 549.367 146.658C549.715 146.611 550.068 146.635 550.407 146.726C550.745 146.818 551.063 146.977 551.341 147.193L551.342 147.193L551.285 147.274L551.343 147.193C551.905 147.631 552.272 148.276 552.365 148.987C552.457 149.698 552.268 150.417 551.837 150.987L541.017 165.284C540.767 165.614 540.445 165.88 540.076 166.063C539.708 166.247 539.303 166.341 538.893 166.34L538.89 166.343Z" fill="#E6E6E6"/>
<path d="M531.828 254.12C531.702 253.993 531.602 253.841 531.534 253.674C531.465 253.507 531.43 253.328 531.43 253.148C531.43 252.967 531.465 252.788 531.534 252.621C531.602 252.454 531.702 252.302 531.828 252.175L547.189 236.61C547.443 236.352 547.789 236.207 548.149 236.208C548.509 236.208 548.854 236.353 549.108 236.61C549.363 236.868 549.506 237.218 549.506 237.583C549.506 237.948 549.363 238.297 549.109 238.555L533.748 254.12C533.622 254.248 533.472 254.349 533.307 254.419C533.143 254.488 532.966 254.523 532.788 254.523C532.61 254.523 532.433 254.488 532.268 254.419C532.104 254.349 531.954 254.248 531.828 254.12Z" fill="#E6E6E6"/>
<path d="M548.204 254.12C548.33 253.993 548.43 253.841 548.498 253.674C548.567 253.507 548.602 253.328 548.602 253.148C548.602 252.967 548.567 252.788 548.498 252.621C548.43 252.454 548.33 252.302 548.204 252.175L532.843 236.61C532.588 236.352 532.243 236.207 531.883 236.208C531.523 236.208 531.178 236.353 530.924 236.61C530.669 236.868 530.526 237.218 530.526 237.583C530.526 237.948 530.669 238.297 530.923 238.555L546.284 254.12C546.41 254.248 546.56 254.349 546.724 254.419C546.889 254.488 547.066 254.523 547.244 254.523C547.422 254.523 547.599 254.488 547.764 254.419C547.928 254.349 548.078 254.248 548.204 254.12Z" fill="#E6E6E6"/>
<path d="M574.853 201.482C574.795 201.482 574.736 201.477 574.677 201.469C574.521 201.446 574.37 201.392 574.235 201.31C574.099 201.228 573.98 201.12 573.886 200.991L566.487 190.937C566.456 190.895 566.414 190.861 566.366 190.84C566.318 190.819 566.265 190.811 566.213 190.818C566.161 190.824 566.111 190.844 566.069 190.876C566.027 190.907 565.994 190.95 565.974 190.999L562.179 199.993C562.081 200.227 561.912 200.424 561.698 200.556C561.483 200.688 561.233 200.749 560.982 200.73C560.732 200.71 560.493 200.612 560.301 200.449C560.108 200.285 559.971 200.065 559.908 199.819L552.337 170.125C552.277 169.891 552.288 169.644 552.367 169.415C552.446 169.187 552.591 168.988 552.783 168.843C552.974 168.698 553.204 168.614 553.443 168.603C553.682 168.591 553.918 168.651 554.123 168.776L580.047 184.602C580.262 184.733 580.431 184.929 580.531 185.163C580.63 185.397 580.655 185.656 580.602 185.905C580.549 186.154 580.42 186.379 580.234 186.55C580.047 186.721 579.813 186.828 579.563 186.857L569.977 187.975C569.925 187.981 569.875 188.001 569.833 188.032C569.791 188.064 569.758 188.106 569.737 188.155C569.716 188.204 569.708 188.257 569.714 188.31C569.721 188.363 569.74 188.413 569.772 188.456L577.171 198.509C577.361 198.769 577.442 199.094 577.396 199.414C577.35 199.734 577.181 200.022 576.925 200.216L575.57 201.24C575.363 201.397 575.112 201.482 574.853 201.482Z" fill="#DC1D08"/>
<path d="M616.954 223.353H584.368C581.968 223.353 579.666 222.387 577.968 220.667C576.271 218.947 575.317 216.614 575.317 214.182C575.317 211.749 576.271 209.416 577.968 207.696C579.666 205.976 581.968 205.01 584.368 205.01H616.954C619.355 205.01 621.657 205.976 623.354 207.696C625.052 209.416 626.005 211.749 626.005 214.182C626.005 216.614 625.052 218.947 623.354 220.667C621.657 222.387 619.355 223.353 616.954 223.353Z" fill="#DC1D08"/>
<path d="M222.054 159.967L220.699 158.943C220.444 158.75 220.274 158.461 220.228 158.141C220.182 157.822 220.263 157.496 220.454 157.237L227.853 147.183C227.884 147.141 227.904 147.09 227.91 147.038C227.916 146.985 227.908 146.931 227.888 146.883C227.867 146.834 227.834 146.792 227.792 146.76C227.749 146.728 227.7 146.708 227.648 146.702L218.061 145.585C217.811 145.556 217.577 145.448 217.391 145.278C217.205 145.107 217.076 144.881 217.023 144.632C216.969 144.384 216.994 144.124 217.094 143.891C217.193 143.657 217.362 143.461 217.578 143.329L243.501 127.504C243.706 127.379 243.943 127.318 244.182 127.33C244.42 127.342 244.65 127.426 244.842 127.57C245.033 127.715 245.178 127.914 245.258 128.143C245.337 128.371 245.347 128.618 245.288 128.853L237.717 158.546C237.654 158.793 237.516 159.013 237.324 159.176C237.131 159.34 236.893 159.438 236.642 159.457C236.392 159.476 236.142 159.416 235.927 159.283C235.712 159.151 235.544 158.954 235.445 158.72L231.651 149.726C231.63 149.677 231.597 149.635 231.555 149.603C231.513 149.571 231.464 149.551 231.412 149.545C231.36 149.539 231.307 149.547 231.259 149.568C231.211 149.589 231.169 149.622 231.138 149.665L223.738 159.719C223.644 159.847 223.526 159.956 223.39 160.038C223.254 160.12 223.104 160.174 222.947 160.196C222.889 160.205 222.83 160.209 222.771 160.209C222.513 160.209 222.261 160.124 222.054 159.967Z" fill="#3F3D56"/>
<path d="M171.619 172.909C171.622 170.478 172.576 168.146 174.273 166.427C175.97 164.707 178.271 163.74 180.67 163.738H213.256C215.657 163.738 217.959 164.704 219.656 166.424C221.354 168.144 222.307 170.477 222.307 172.909C222.307 175.342 221.354 177.675 219.656 179.395C217.959 181.115 215.657 182.081 213.256 182.081H180.67C178.271 182.078 175.97 181.111 174.273 179.392C172.576 177.672 171.622 175.341 171.619 172.909Z" fill="#3F3D56"/>
<path d="M654.743 339.164C655.724 338.253 656.495 337.135 657.004 335.889C657.512 334.643 657.744 333.299 657.685 331.952C657.625 330.605 657.274 329.288 656.658 328.093C656.041 326.898 655.174 325.855 654.116 325.036L664.235 293.907L648.013 298.364L640.89 327.242C639.651 329.133 639.14 331.419 639.454 333.667C639.767 335.915 640.883 337.968 642.591 339.438C644.298 340.907 646.478 341.691 648.718 341.641C650.958 341.59 653.101 340.709 654.743 339.164Z" fill="#A0616A"/>
<path d="M752.049 337.33C751.068 336.419 750.296 335.301 749.788 334.055C749.28 332.809 749.048 331.465 749.107 330.118C749.167 328.771 749.518 327.454 750.134 326.259C750.751 325.064 751.618 324.021 752.676 323.202L742.556 292.073L758.779 296.53L765.901 325.408C767.14 327.299 767.652 329.585 767.338 331.833C767.025 334.081 765.909 336.134 764.201 337.603C762.494 339.073 760.314 339.857 758.074 339.806C755.834 339.756 753.69 338.875 752.049 337.33Z" fill="#A0616A"/>
<path d="M704.501 181.827C716.779 181.827 726.732 171.742 726.732 159.301C726.732 146.86 716.779 136.774 704.501 136.774C692.222 136.774 682.269 146.86 682.269 159.301C682.269 171.742 692.222 181.827 704.501 181.827Z" fill="#A0616A"/>
<path d="M683.515 481.841H672.419L667.139 438.47H683.518L683.515 481.841Z" fill="#A0616A"/>
<path d="M686.345 492.741L650.564 492.74V492.281C650.564 490.428 650.924 488.593 651.624 486.881C652.324 485.169 653.35 483.613 654.643 482.303C655.936 480.992 657.472 479.953 659.161 479.244C660.851 478.534 662.662 478.169 664.491 478.169L686.346 478.17L686.345 492.741Z" fill="#2F2E41"/>
<path d="M721.531 481.841H710.435L705.155 438.47H721.534L721.531 481.841Z" fill="#A0616A"/>
<path d="M724.361 492.741L688.58 492.74V492.281C688.58 490.428 688.941 488.593 689.64 486.881C690.34 485.169 691.366 483.613 692.659 482.303C693.953 480.992 695.488 479.953 697.178 479.244C698.867 478.534 700.678 478.169 702.507 478.169L724.362 478.17L724.361 492.741Z" fill="#2F2E41"/>
<path d="M683.334 469.164L670.299 469.128C669.74 469.2 669.173 469.152 668.633 468.988C668.094 468.824 667.595 468.546 667.168 468.174C666.732 467.797 666.379 467.33 666.133 466.806C665.887 466.281 665.753 465.709 665.739 465.129L667.241 318.954L727.394 318.345L723.904 464.051C723.885 465.13 723.446 466.158 722.684 466.912C721.922 467.666 720.898 468.085 719.832 468.079H706.391C705.337 468.082 704.322 467.669 703.562 466.928C702.803 466.186 702.357 465.175 702.321 464.106L699.068 376.655C699.069 376.596 699.058 376.537 699.035 376.483C699.013 376.428 698.98 376.379 698.938 376.338C698.897 376.296 698.847 376.264 698.793 376.243C698.739 376.221 698.68 376.211 698.622 376.214C698.506 376.21 698.393 376.253 698.307 376.333C698.221 376.413 698.17 376.524 698.164 376.642L686.845 465.381C686.775 466.323 686.388 467.213 685.749 467.902C685.11 468.59 684.258 469.036 683.334 469.164Z" fill="#2F2E41"/>
<path d="M694.557 328.912C685.669 328.912 676.276 327.304 667.798 322.6C667.163 322.249 666.632 321.734 666.256 321.108C665.881 320.482 665.675 319.767 665.66 319.035L664.474 252.322L662.806 238.047C661.805 229.555 663.298 220.954 667.097 213.317C670.897 205.681 676.834 199.35 684.166 195.115L684.937 194.669L687.107 189.536C687.284 189.112 687.584 188.752 687.967 188.504C688.349 188.257 688.798 188.132 689.252 188.148L718.436 188.993C718.9 189.007 719.348 189.166 719.72 189.446C720.092 189.726 720.371 190.115 720.518 190.56L721.874 194.681C729.364 199.038 735.375 205.593 739.114 213.481C742.853 221.37 744.145 230.222 742.818 238.869L730.855 319.092C730.748 319.814 730.453 320.494 730.002 321.063C729.55 321.632 728.958 322.069 728.285 322.33C722.991 324.368 709.49 328.912 694.557 328.912Z" fill="#3F3D56"/>
<path d="M751.588 319.866C751.131 319.866 750.684 319.725 750.307 319.464C749.93 319.202 749.639 318.831 749.473 318.4L734.654 279.536L722.535 218.988C722.077 216.703 722.289 214.333 723.146 212.17C724.002 210.006 725.466 208.144 727.355 206.814C728.986 205.664 730.879 204.95 732.856 204.74C734.833 204.53 736.83 204.83 738.662 205.613C740.493 206.395 742.1 207.634 743.332 209.215C744.564 210.795 745.382 212.666 745.708 214.653L749.1 235.271L765.919 314.2C766.041 314.787 765.933 315.399 765.616 315.906C765.3 316.413 764.801 316.775 764.225 316.915L752.102 319.805C751.934 319.846 751.761 319.866 751.588 319.866Z" fill="#3F3D56"/>
<path d="M656.109 319.866C655.936 319.866 655.763 319.846 655.594 319.805L643.472 316.915C642.896 316.775 642.397 316.413 642.081 315.906C641.764 315.399 641.656 314.787 641.778 314.2L658.601 235.25L661.988 214.653C662.315 212.666 663.133 210.795 664.365 209.215C665.597 207.634 667.203 206.395 669.035 205.613C670.867 204.83 672.864 204.53 674.841 204.74C676.818 204.95 678.71 205.664 680.342 206.814C682.231 208.144 683.694 210.006 684.551 212.17C685.407 214.333 685.62 216.703 685.162 218.988L673.064 279.462L658.223 318.401C658.057 318.832 657.767 319.203 657.389 319.464C657.012 319.725 656.566 319.866 656.109 319.866Z" fill="#3F3D56"/>
<path d="M721.804 180.791C719.746 181.991 711.61 182.787 711.031 180.453L711.018 180.402C710.615 178.692 710.95 176.907 711.066 175.153C711.181 173.399 711.012 171.472 709.833 170.182C707.635 167.778 703.725 169.053 700.548 168.445C698.686 168.024 697.04 166.93 695.917 165.368C694.794 163.806 694.271 161.883 694.447 159.958C694.492 159.594 694.563 159.229 694.643 158.864C694.841 157.94 694.826 156.982 694.598 156.064C694.369 155.147 693.934 154.296 693.327 153.578C692.719 152.86 691.956 152.294 691.096 151.925C690.237 151.556 689.305 151.394 688.373 151.452C685.161 151.638 681.695 152.624 679.037 150.214C676.983 148.35 676.481 143.498 677.384 140.858C678.901 136.42 688.62 134.097 692.864 132.82C698.112 131.283 703.632 130.951 709.023 131.847C714.414 132.744 719.54 134.846 724.029 138.001C726.709 139.916 729.212 142.321 730.355 145.436C731.497 148.55 730.946 152.48 728.37 154.536C730.366 156.678 731.773 159.314 732.447 162.181C733.122 165.047 733.041 168.043 732.213 170.867C730.941 175.022 724.868 179.004 721.804 180.791Z" fill="#2F2E41"/>
<path d="M102.797 305.516C101.473 305.381 100.194 304.954 99.0511 304.264C97.9078 303.574 96.9276 302.639 96.1797 301.524C95.4318 300.409 94.9342 299.141 94.7222 297.81C94.5101 296.479 94.5886 295.117 94.9522 293.82L68.4546 275.023L84.0824 268.753L106.849 287.564C108.959 288.327 110.719 289.848 111.796 291.838C112.873 293.829 113.192 296.151 112.693 298.364C112.193 300.577 110.91 302.527 109.086 303.845C107.262 305.164 105.025 305.758 102.797 305.516Z" fill="#FFB8B8"/>
<path d="M88.4076 291.229L64.4111 277.126C62.0002 275.745 59.8991 273.871 58.2415 271.623C56.584 269.375 55.4061 266.802 54.7829 264.068C54.2201 261.481 54.1864 258.805 54.684 256.204C55.1816 253.604 56.1999 251.134 57.676 248.948L77.5407 219.258C78.9458 217.157 81.0824 215.673 83.5223 215.101C85.9622 214.529 88.5253 214.913 90.6979 216.175C92.8705 217.437 94.4921 219.484 95.238 221.907C95.9838 224.329 95.7986 226.948 94.7196 229.237L79.208 262.169L94.9218 276.188C95.4651 276.674 95.871 277.297 96.0978 277.995C96.3245 278.692 96.3639 279.438 96.2119 280.155L94.4329 288.526C94.301 289.164 94.0203 289.761 93.6144 290.266C93.2084 290.772 92.6889 291.171 92.0994 291.432C91.5126 291.699 90.8713 291.82 90.2291 291.784C89.5869 291.749 88.9624 291.558 88.4076 291.229Z" fill="#3F3D56"/>
<path d="M197.137 225.256C196.735 226.541 196.059 227.721 195.158 228.713C194.256 229.704 193.151 230.484 191.92 230.996C190.69 231.509 189.363 231.741 188.034 231.678C186.704 231.614 185.405 231.256 184.227 230.629L160.624 253.039L157.782 236.252L180.632 217.545C181.803 215.61 183.634 214.178 185.778 213.519C187.922 212.86 190.23 213.022 192.264 213.972C194.299 214.922 195.919 216.596 196.817 218.676C197.715 220.755 197.829 223.096 197.137 225.256Z" fill="#FFB8B8"/>
<path d="M100.464 195.838C112.742 195.838 122.696 185.752 122.696 173.311C122.696 160.87 112.742 150.785 100.464 150.785C88.186 150.785 78.2327 160.87 78.2327 173.311C78.2327 185.752 88.186 195.838 100.464 195.838Z" fill="#FFB8B8"/>
<path d="M165.922 481.476L176.558 478.27L169.413 435.174L153.715 439.907L165.922 481.476Z" fill="#FFB8B8"/>
<path d="M162.176 478.775L183.122 472.46C184.875 471.932 186.714 471.758 188.533 471.95C190.352 472.141 192.117 472.694 193.725 473.576C195.333 474.458 196.754 475.653 197.907 477.092C199.06 478.531 199.921 480.186 200.443 481.962L200.572 482.401L166.277 492.741L162.176 478.775Z" fill="#2F2E41"/>
<path d="M49.394 480.924H60.4903L65.7701 437.553H54.8231L49.394 480.924Z" fill="#FFB8B8"/>
<path d="M46.5632 477.253L68.417 477.252H68.4179C70.2469 477.252 72.0579 477.617 73.7476 478.326C75.4373 479.035 76.9727 480.075 78.2659 481.385C79.5592 482.696 80.585 484.251 81.2849 485.964C81.9848 487.676 82.3451 489.511 82.3451 491.364V491.823L46.5639 491.824L46.5632 477.253Z" fill="#2F2E41"/>
<path d="M157.982 465.953L116.358 344.587C116.271 344.32 116.103 344.088 115.879 343.922C115.654 343.757 115.384 343.666 115.107 343.664C114.828 343.648 114.552 343.724 114.32 343.879C114.087 344.035 113.91 344.262 113.815 344.528L65.8521 466.023C65.5396 466.822 64.9875 467.502 64.2736 467.967C63.5596 468.431 62.7199 468.657 61.8726 468.612L49.3538 467.997C48.751 467.967 48.1622 467.802 47.63 467.514C47.0978 467.225 46.6356 466.821 46.2767 466.329C45.9178 465.837 45.6712 465.271 45.5548 464.671C45.4383 464.071 45.455 463.452 45.6035 462.859L90.9724 281.679L136.49 277.915L136.787 278.35C137.033 278.71 161.387 315.039 161.372 377.761L176.978 463.852C177.086 464.447 177.063 465.059 176.912 465.644C176.76 466.23 176.484 466.774 176.101 467.239C175.719 467.704 175.241 468.078 174.7 468.335C174.159 468.592 173.569 468.725 172.972 468.725H161.83C160.984 468.725 160.159 468.458 159.47 467.961C158.781 467.464 158.261 466.762 157.982 465.953Z" fill="#2F2E41"/>
<path d="M74.7484 240.584C73.1469 235.938 72.7516 230.952 73.6004 226.107C74.4491 221.261 76.5134 216.718 79.595 212.914C82.6049 209.132 86.524 206.197 90.9758 204.391C95.4277 202.586 100.263 201.971 105.017 202.605C105.394 202.656 105.769 202.707 106.142 202.76C112.193 203.588 117.818 206.376 122.178 210.709C126.537 215.043 129.396 220.688 130.329 226.803L138.829 281.585L90.3671 285.291L90.0193 285.317L74.7484 240.584Z" fill="#3F3D56"/>
<path d="M145.467 262.813C142.815 262.721 140.211 262.071 137.82 260.904C135.43 259.737 133.305 258.08 131.58 256.036L108.656 229.109C106.877 227.09 105.947 224.447 106.062 221.743C106.134 220.33 106.502 218.949 107.142 217.691C107.781 216.433 108.678 215.327 109.773 214.448C111.579 212.987 113.832 212.209 116.143 212.249C118.455 212.288 120.68 213.143 122.437 214.665L149.776 238.407L166.596 226.551C167.199 226.125 167.905 225.873 168.639 225.821C169.372 225.769 170.106 225.92 170.762 226.257L178.812 230.386C179.387 230.681 179.885 231.11 180.264 231.639C180.644 232.167 180.894 232.779 180.995 233.424C181.095 234.07 181.043 234.73 180.843 235.351C180.642 235.972 180.299 236.536 179.842 236.997L159.826 257.139C158.042 258.947 155.924 260.38 153.592 261.356C151.26 262.332 148.761 262.832 146.239 262.827C145.982 262.827 145.725 262.822 145.467 262.813Z" fill="#3F3D56"/>
<path d="M117.37 167.685C120.138 168.773 123.055 169.424 126.018 169.614C128.998 169.651 132.166 168.605 133.797 166.305C134.423 165.3 134.827 164.171 134.982 162.993C135.136 161.815 135.037 160.618 134.692 159.482C134.075 157.18 132.964 155.045 131.438 153.229C129.912 151.412 128.009 149.959 125.865 148.974C123.612 147.939 121.18 147.364 118.707 147.284C116.235 147.203 113.771 147.618 111.457 148.504C109.785 143.352 103.485 140.548 97.6534 140.389C85.7419 140.065 75.0913 148.295 69.916 158.191C64.7407 168.087 63.9846 179.399 63.6628 190.381C63.5844 193.059 63.5515 195.852 64.8036 198.27C66.668 201.87 70.9049 203.809 74.8983 205.347C85.3704 209.373 96.174 212.45 107.182 214.542C101.897 211.119 100.22 203.751 103.568 198.658C105.206 196.166 107.896 194.091 108.331 191.205C108.853 187.745 105.939 184.719 104.861 181.37C104.317 179.556 104.292 177.624 104.79 175.797C105.289 173.97 106.289 172.324 107.676 171.051C109.185 169.723 110.989 168.785 112.934 168.318C114.879 167.851 116.906 167.868 118.843 168.368" fill="#2F2E41"/>
<path d="M225.383 493H0.905152C0.665091 493 0.434861 492.903 0.265112 492.731C0.0953633 492.559 0 492.326 0 492.083C0 491.839 0.0953633 491.606 0.265112 491.434C0.434861 491.262 0.665091 491.166 0.905152 491.166H225.383C225.623 491.166 225.853 491.262 226.023 491.434C226.193 491.606 226.288 491.839 226.288 492.083C226.288 492.326 226.193 492.559 226.023 492.731C225.853 492.903 225.623 493 225.383 493Z" fill="#CCCCCC"/>
<path d="M772.095 493H612.788C612.548 493 612.318 492.903 612.148 492.731C611.978 492.559 611.883 492.326 611.883 492.083C611.883 491.839 611.978 491.606 612.148 491.434C612.318 491.262 612.548 491.166 612.788 491.166H772.095C772.335 491.166 772.565 491.262 772.735 491.434C772.905 491.606 773 491.839 773 492.083C773 492.326 772.905 492.559 772.735 492.731C772.565 492.903 772.335 493 772.095 493Z" fill="#CCCCCC"/>
</g>
<defs>
<clipPath id="clip0_16_1438">
<rect width="773" height="493" fill="white"/>
</clipPath>
</defs>
</svg>
