<svg width="634" height="531" viewBox="0 0 634 531" fill="none" xmlns="http://www.w3.org/2000/svg">
<g clip-path="url(#clip0_26_342)">
<path d="M558.828 32.2564H0.876514C0.642342 32.2512 0.419517 32.1545 0.255739 31.987C0.0919609 31.8196 0.000244141 31.5946 0.000244141 31.3604C0.000244141 31.1261 0.0919609 30.9012 0.255739 30.7337C0.419517 30.5662 0.642342 30.4696 0.876514 30.4644H558.828C559.062 30.4696 559.285 30.5662 559.449 30.7337C559.612 30.9012 559.704 31.1261 559.704 31.3604C559.704 31.5946 559.612 31.8196 559.449 31.987C559.285 32.1545 559.062 32.2512 558.828 32.2564Z" fill="#CACACA"/>
<path d="M20.6022 19.7123C25.9265 19.7123 30.2426 15.2996 30.2426 9.85617C30.2426 4.41276 25.9265 0 20.6022 0C15.278 0 10.9619 4.41276 10.9619 9.85617C10.9619 15.2996 15.278 19.7123 20.6022 19.7123Z" fill="#3F3D56"/>
<path d="M53.905 19.7123C59.2292 19.7123 63.5453 15.2996 63.5453 9.85617C63.5453 4.41276 59.2292 0 53.905 0C48.5808 0 44.2646 4.41276 44.2646 9.85617C44.2646 15.2996 48.5808 19.7123 53.905 19.7123Z" fill="#3F3D56"/>
<path d="M87.208 19.7123C92.5322 19.7123 96.8483 15.2996 96.8483 9.85617C96.8483 4.41276 92.5322 0 87.208 0C81.8837 0 77.5676 4.41276 77.5676 9.85617C77.5676 15.2996 81.8837 19.7123 87.208 19.7123Z" fill="#3F3D56"/>
<path d="M538.871 2.44287H515.214C514.745 2.45218 514.299 2.64501 513.97 2.97995C513.642 3.3149 513.458 3.76524 513.458 4.23429C513.458 4.70334 513.642 5.15368 513.97 5.48863C514.299 5.82357 514.745 6.0164 515.214 6.02571H538.871C539.34 6.0164 539.786 5.82357 540.115 5.48863C540.443 5.15368 540.627 4.70334 540.627 4.23429C540.627 3.76524 540.443 3.3149 540.115 2.97995C539.786 2.64501 539.34 2.45218 538.871 2.44287Z" fill="#3F3D56"/>
<path d="M538.871 9.16748H515.214C514.745 9.17679 514.299 9.36962 513.97 9.70456C513.642 10.0395 513.458 10.4899 513.458 10.9589C513.458 11.428 513.642 11.8783 513.97 12.2132C514.299 12.5482 514.745 12.741 515.214 12.7503H538.871C539.34 12.741 539.786 12.5482 540.115 12.2132C540.443 11.8783 540.627 11.428 540.627 10.9589C540.627 10.4899 540.443 10.0395 540.115 9.70456C539.786 9.36962 539.34 9.17679 538.871 9.16748Z" fill="#3F3D56"/>
<path d="M538.871 15.8828H515.214C514.745 15.8921 514.299 16.085 513.97 16.4199C513.642 16.7548 513.458 17.2052 513.458 17.6742C513.458 18.1433 513.642 18.5936 513.97 18.9286C514.299 19.2635 514.745 19.4563 515.214 19.4657H538.871C539.34 19.4563 539.786 19.2635 540.115 18.9286C540.443 18.5936 540.627 18.1433 540.627 17.6742C540.627 17.2052 540.443 16.7548 540.115 16.4199C539.786 16.085 539.34 15.8921 538.871 15.8828Z" fill="#3F3D56"/>
<path d="M530.037 62.5107H21.8372C19.0232 62.5149 16.3257 63.6348 14.3359 65.6248C12.3461 67.6148 11.2264 70.3126 11.2222 73.1269V74.8389C11.2264 77.6532 12.3461 80.351 14.3359 82.341C16.3257 84.331 19.0232 85.4508 21.8372 85.455H530.037C532.851 85.4508 535.548 84.331 537.538 82.341C539.528 80.351 540.648 77.6532 540.652 74.8389V73.1269C540.648 70.3126 539.528 67.6148 537.538 65.6248C535.548 63.6348 532.851 62.5149 530.037 62.5107Z" fill="#F0F0F0"/>
<path d="M83.1676 78.2191H34.7928C33.7105 78.2175 32.673 77.7864 31.9082 77.0204C31.1434 76.2544 30.7139 75.2162 30.7139 74.1337C30.7139 73.0512 31.1434 72.013 31.9082 71.247C32.673 70.481 33.7105 70.0499 34.7928 70.0483H83.1676C88.4356 69.9748 88.4883 78.2933 83.1676 78.2191Z" fill="white"/>
<path d="M227.878 78.2191H179.504C178.421 78.2175 177.384 77.7864 176.619 77.0204C175.854 76.2544 175.425 75.2162 175.425 74.1337C175.425 73.0512 175.854 72.013 176.619 71.247C177.384 70.481 178.421 70.0499 179.504 70.0483H227.878C233.146 69.9748 233.199 78.2933 227.878 78.2191Z" fill="white"/>
<path d="M372.589 78.2191H324.214C323.132 78.2175 322.095 77.7864 321.33 77.0204C320.565 76.2544 320.135 75.2162 320.135 74.1337C320.135 73.0512 320.565 72.013 321.33 71.247C322.095 70.481 323.132 70.0499 324.214 70.0483H372.589C377.857 69.9748 377.91 78.2933 372.589 78.2191Z" fill="white"/>
<path d="M509.8 78.66H461.425C460.341 78.66 459.302 78.2296 458.536 77.4634C457.77 76.6973 457.34 75.6581 457.34 74.5746C457.34 73.4911 457.77 72.452 458.536 71.6858C459.302 70.9197 460.341 70.4893 461.425 70.4893H509.8C515.068 70.4157 515.12 78.7342 509.8 78.66Z" fill="#DC1E09"/>
<path d="M434.325 62.5107H432.56V85.455H434.325V62.5107Z" fill="white"/>
<path d="M251.711 402.097H44.3045C42.4565 402.095 40.6847 401.36 39.378 400.053C38.0712 398.746 37.3361 396.974 37.334 395.126V364.747C37.3361 362.898 38.0712 361.126 39.378 359.82C40.6847 358.513 42.4565 357.778 44.3045 357.775H251.711C253.559 357.778 255.331 358.513 256.638 359.82C257.945 361.126 258.68 362.898 258.682 364.747V395.126C258.68 396.974 257.945 398.746 256.638 400.053C255.331 401.36 253.559 402.095 251.711 402.097Z" fill="#F0F0F0"/>
<path d="M231.559 397.395H49.0074C47.1593 397.393 45.3876 396.658 44.0808 395.351C42.7741 394.044 42.039 392.272 42.0369 390.424V369.453C42.039 367.604 42.7741 365.833 44.0808 364.526C45.3876 363.219 47.1593 362.484 49.0074 362.481H247.01C248.858 362.484 250.629 363.219 251.936 364.526C253.243 365.833 253.978 367.604 253.98 369.453V374.972C253.973 380.917 251.609 386.617 247.406 390.82C243.203 395.024 237.504 397.389 231.559 397.395Z" fill="white"/>
<path d="M168.589 377.775H85.2276C84.7509 377.775 84.2936 377.586 83.9565 377.249C83.6193 376.912 83.4299 376.454 83.4299 375.978C83.4299 375.501 83.6193 375.043 83.9565 374.706C84.2936 374.369 84.7509 374.18 85.2276 374.18H168.589C169.066 374.18 169.523 374.369 169.861 374.706C170.198 375.043 170.387 375.501 170.387 375.978C170.387 376.454 170.198 376.912 169.861 377.249C169.523 377.586 169.066 377.775 168.589 377.775Z" fill="#E6E6E6"/>
<path d="M210.789 385.128H85.2277C84.9913 385.129 84.7571 385.083 84.5385 384.993C84.32 384.903 84.1213 384.77 83.954 384.603C83.7866 384.436 83.6538 384.238 83.5633 384.02C83.4727 383.801 83.426 383.567 83.426 383.331C83.426 383.094 83.4727 382.86 83.5633 382.642C83.6538 382.423 83.7866 382.225 83.954 382.058C84.1213 381.891 84.32 381.759 84.5385 381.668C84.7571 381.578 84.9913 381.532 85.2277 381.533H210.789C211.265 381.534 211.721 381.724 212.057 382.061C212.393 382.398 212.582 382.854 212.582 383.331C212.582 383.807 212.393 384.263 212.057 384.6C211.721 384.938 211.265 385.127 210.789 385.128Z" fill="#E6E6E6"/>
<path d="M264.96 323.017H28.4726C26.5855 323.015 24.7764 322.264 23.442 320.929C22.1077 319.595 21.3571 317.786 21.355 315.898V135.108C21.3571 133.221 22.1077 131.412 23.4421 130.077C24.7764 128.743 26.5856 127.992 28.4726 127.99H264.96C266.847 127.992 268.656 128.743 269.991 130.077C271.325 131.412 272.076 133.221 272.078 135.108V315.898C272.076 317.786 271.325 319.595 269.991 320.929C268.656 322.264 266.847 323.015 264.96 323.017Z" fill="white"/>
<path d="M264.96 323.899H28.4729C26.352 323.897 24.3186 323.053 22.8188 321.553C21.319 320.053 20.4754 318.02 20.4729 315.898V135.108C20.4754 132.987 21.3191 130.954 22.8188 129.454C24.3186 127.954 26.352 127.11 28.4729 127.108H264.96C267.081 127.11 269.115 127.954 270.614 129.454C272.114 130.954 272.958 132.987 272.96 135.108V315.898C272.958 318.02 272.114 320.053 270.614 321.553C269.115 323.053 267.081 323.897 264.96 323.899ZM28.4729 128.873C26.8199 128.875 25.235 129.532 24.0661 130.701C22.8972 131.87 22.2396 133.455 22.2377 135.108V315.898C22.2395 317.552 22.897 319.137 24.066 320.306C25.2349 321.475 26.8198 322.133 28.4729 322.134H264.96C266.613 322.133 268.198 321.475 269.367 320.306C270.536 319.137 271.194 317.552 271.195 315.898V135.108C271.193 133.455 270.536 131.87 269.367 130.701C268.198 129.532 266.613 128.875 264.96 128.873L28.4729 128.873Z" fill="#F0F0F0"/>
<path d="M21.9014 288.601V315.899C21.904 317.641 22.5971 319.311 23.8289 320.543C25.0607 321.775 26.7306 322.468 28.4726 322.471H264.96C266.702 322.468 268.372 321.775 269.604 320.543C270.836 319.311 271.529 317.641 271.532 315.899V288.601H21.9014Z" fill="#F0F0F0"/>
<path d="M24.1298 129.142L23.1785 130.628L271.056 289.344L272.007 287.857L24.1298 129.142Z" fill="#F0F0F0"/>
<path d="M271.756 129.142L23.8784 287.857L24.8298 289.344L272.707 130.628L271.756 129.142Z" fill="#F0F0F0"/>
<path d="M481.22 518.707L470.287 518.706L465.085 476.534L481.222 476.535L481.22 518.707Z" fill="#A0616A"/>
<path d="M480.928 515.134L469.263 510.395L468.919 510.253L462.478 515.134C458.943 515.133 455.544 516.498 452.991 518.943C450.438 521.388 448.927 524.724 448.774 528.256C448.757 528.45 448.757 528.653 448.757 528.856V529.306H484.008V515.134H480.928Z" fill="#2F2E41"/>
<path d="M455.617 508.532L445.303 512.161L426.401 474.104L441.622 468.75L455.617 508.532Z" fill="#A0616A"/>
<path d="M454.156 505.258L441.58 504.66L441.208 504.641L436.752 511.383C433.417 512.556 430.664 514.971 429.067 518.125C427.47 521.279 427.152 524.927 428.18 528.31C428.228 528.499 428.295 528.69 428.363 528.882L428.512 529.306L461.765 517.605L457.061 504.236L454.156 505.258Z" fill="#2F2E41"/>
<path d="M485.083 336.866C495.085 336.478 482.695 416.191 482.695 416.191C482.695 416.191 486.319 486.176 485.551 489.849C484.783 493.522 485.454 503.427 485.454 503.427C483.495 499.86 463.278 502.552 463.278 502.552L460.528 431.623L446.486 374.792L427.019 412.886L445.677 471.36C445.677 471.36 453.233 478.352 452.43 481.116C451.626 483.879 431.834 490.111 428.197 490.252C424.56 490.393 426.202 485.776 426.026 481.229C425.85 476.682 408.735 434.542 402.715 420.204C396.696 405.866 401.376 385.648 404.448 370.958C407.521 356.267 423.687 328.697 423.687 328.697C443.754 306.062 475.081 337.254 485.083 336.866Z" fill="#2F2E41"/>
<path d="M363.193 272.447C363.741 273.494 364.511 274.408 365.451 275.125C366.39 275.841 367.475 276.343 368.629 276.595C369.783 276.847 370.979 276.843 372.131 276.583C373.284 276.323 374.365 275.814 375.3 275.09L399.352 290.784L399.278 275.859L376.449 263.244C375.13 261.755 373.311 260.802 371.336 260.564C369.361 260.327 367.368 260.823 365.734 261.957C364.1 263.091 362.939 264.786 362.47 266.719C362.002 268.653 362.259 270.691 363.193 272.447Z" fill="#A0616A"/>
<path d="M479.888 349.645C455.085 349.646 441.416 344.68 434.158 340.246C425.282 334.825 423.763 329.108 423.703 328.866L423.685 328.797L424.549 317.925L424.927 317.079C426.668 313.182 426.899 308.776 425.575 304.718L425.548 304.635L425.555 304.548L431.354 229.321L451.878 222.598L457.849 216.598L484.433 216.212L488.137 223.722L509.095 231.613L498.799 292.907L493.863 301.415L495.849 310.684L495.835 310.767L489.36 349.419L489.004 349.435C485.81 349.578 482.772 349.648 479.888 349.645Z" fill="#3F3D56"/>
<path d="M415.72 302.714L405.989 296.944L405.379 296.063C404.14 294.281 402.501 292.813 400.593 291.779C398.684 290.745 396.56 290.173 394.39 290.108L394.277 290.105L380.875 282.225L386.43 265.949L407.439 272.156L422.087 235.759C422.891 233.76 424.234 232.023 425.967 230.742C427.699 229.461 429.753 228.686 431.899 228.502C434.046 228.319 436.202 228.734 438.126 229.703C440.051 230.672 441.669 232.155 442.801 233.989C443.961 235.905 444.562 238.107 444.537 240.347V264.162L444.449 264.28L415.72 302.714Z" fill="#3F3D56"/>
<path d="M480.775 335.647C480.983 334.484 481.444 333.38 482.124 332.414C482.805 331.449 483.689 330.644 484.714 330.056C485.739 329.469 486.881 329.114 488.058 329.016C489.235 328.918 490.42 329.079 491.528 329.488L509.755 307.292L514.169 321.549L496.184 340.441C495.373 342.258 493.924 343.714 492.112 344.534C490.299 345.353 488.249 345.48 486.35 344.889C484.451 344.298 482.834 343.03 481.807 341.327C480.779 339.624 480.412 337.603 480.775 335.647Z" fill="#A0616A"/>
<path d="M508.027 332.842L495.924 320.736L503.628 301.962L514.794 286.714C502.896 280.921 493.965 267.198 487.493 255.838L487.421 255.711L489.032 243.088C489.409 240.136 490.592 237.344 492.45 235.019C494.066 232.998 496.143 231.393 498.506 230.338C500.87 229.284 503.451 228.81 506.035 228.958C508.619 229.106 511.129 229.87 513.357 231.187C515.585 232.504 517.466 234.335 518.841 236.528L540.54 284.771L540.296 285.136L522.842 314.891L518.079 317.981L508.027 332.842Z" fill="#3F3D56"/>
<path d="M490.228 190.908C489.43 196.725 486.356 201.987 481.681 205.538C477.005 209.09 471.112 210.64 465.295 209.848C459.477 209.056 454.212 205.987 450.656 201.316C447.1 196.644 445.544 190.751 446.329 184.933L446.372 184.618C447.29 178.877 450.427 173.727 455.108 170.279C459.788 166.831 465.636 165.361 471.391 166.186C477.145 167.011 482.344 170.066 485.867 174.69C489.39 179.315 490.954 185.139 490.221 190.907L490.228 190.908Z" fill="#A0616A"/>
<path d="M484.59 202.319C485.728 200.008 486.896 197.526 486.577 194.97C486.257 192.414 483.751 189.971 481.29 190.731C479.818 191.185 478.706 192.639 477.167 192.713C475.05 192.815 473.837 190.393 473.178 188.378L470.495 180.174C467.918 182.183 464.93 183.597 461.743 184.317C458.557 185.038 455.251 185.045 452.061 184.34C449.569 183.77 447.052 182.66 445.591 180.563C444.13 178.466 444.138 175.214 446.143 173.628C447.126 172.851 448.434 172.555 449.373 171.726C449.956 171.211 450.357 170.523 450.518 169.762C450.679 169.001 450.591 168.209 450.267 167.503C449.943 166.796 449.4 166.212 448.718 165.839C448.037 165.465 447.253 165.32 446.483 165.426L453.239 164.582L451.226 160.94C451.991 161.461 452.857 161.817 453.767 161.984C454.678 162.151 455.613 162.126 456.513 161.91C458.331 161.583 460.043 160.835 461.821 160.335C466.131 159.235 470.683 159.571 474.785 161.294C478.887 163.016 482.314 166.031 484.546 169.879C486.209 169.324 488.001 169.287 489.685 169.773C491.369 170.26 492.865 171.246 493.976 172.602C495.785 174.898 496.277 177.962 496.347 180.884C496.478 186.645 495.222 192.353 492.685 197.527C491.957 199.171 490.911 200.654 489.608 201.892C488.952 202.506 488.17 202.968 487.316 203.247C486.462 203.527 485.557 203.616 484.666 203.508" fill="#2F2E41"/>
<path d="M125.628 179.524C125.989 184.684 127.509 189.696 130.074 194.187C135.481 203.684 144.753 210.559 154.739 214.646C167.215 219.751 181.122 219.909 194.362 218.77C206.66 217.713 218.832 215.262 231.175 214.757C240.72 214.451 250.275 214.679 259.795 215.439C278.265 216.75 296.658 219.183 314.932 222.132C319.881 222.921 324.82 223.768 329.749 224.675C330.214 224.716 330.675 224.802 331.125 224.93C331.214 224.967 331.358 224.939 331.44 224.99C331.589 225.084 330.838 224.753 331.293 225.129C331.927 225.794 332.492 226.521 332.98 227.3L339.73 235.987C341.665 238.478 343.461 241.504 345.963 243.468C347.727 244.83 349.854 245.64 352.078 245.795C354.301 245.95 356.521 245.443 358.457 244.338C360.479 243.061 362.092 241.229 363.103 239.06C364.655 236.213 366.507 233.539 368.628 231.085C376.657 221.717 387.817 215.955 397.15 208.072C401.672 204.411 405.53 199.999 408.558 195.031C411.141 190.535 412.747 185.545 413.271 180.387C414.389 169.911 411.175 159.227 405.768 150.315C399.888 140.74 391.44 133.007 381.385 127.994C370.088 122.238 357.588 119.435 345.058 118.038C331.755 116.554 318.297 116.559 304.929 116.709C289.927 116.876 274.951 117.536 260.003 118.688C245.034 119.847 230.124 121.494 215.274 123.629C201.024 125.678 186.6 127.814 172.651 131.439C160.329 134.642 148.041 139.648 138.84 148.719C130.658 156.784 124.968 167.82 125.628 179.524Z" fill="#DC1E09"/>
<path d="M194.507 182.857C193.898 182.83 193.301 182.676 192.754 182.407C192.207 182.138 191.721 181.758 191.328 181.292C190.935 180.825 190.643 180.283 190.47 179.698C190.296 179.113 190.246 178.499 190.322 177.894L190.639 175.401C190.699 174.923 190.642 174.437 190.474 173.986C190.305 173.534 190.029 173.13 189.67 172.809L187.798 171.136C187.185 170.588 186.737 169.88 186.505 169.091C186.274 168.302 186.268 167.464 186.488 166.672C186.708 165.88 187.145 165.165 187.75 164.608C188.355 164.051 189.103 163.675 189.911 163.522L192.379 163.053C192.852 162.963 193.297 162.76 193.674 162.46C194.051 162.16 194.349 161.773 194.544 161.333L195.557 159.032C195.889 158.28 196.424 157.635 197.103 157.171C197.782 156.708 198.577 156.443 199.398 156.407C200.219 156.372 201.034 156.567 201.75 156.97C202.466 157.373 203.056 157.969 203.451 158.689L204.659 160.892C204.891 161.315 205.222 161.675 205.624 161.942C206.026 162.208 206.486 162.373 206.966 162.421L209.465 162.674C210.283 162.756 211.061 163.066 211.712 163.569C212.363 164.071 212.861 164.745 213.148 165.515C213.436 166.285 213.502 167.121 213.34 167.927C213.178 168.733 212.793 169.477 212.23 170.076L210.509 171.906C210.179 172.257 209.939 172.682 209.81 173.147C209.681 173.611 209.667 174.099 209.769 174.57L210.3 177.027C210.474 177.831 210.42 178.667 210.143 179.441C209.867 180.215 209.379 180.896 208.736 181.408C208.092 181.919 207.319 182.241 206.502 182.335C205.686 182.43 204.859 182.295 204.116 181.944L201.844 180.873C201.408 180.667 200.929 180.57 200.447 180.591C199.965 180.611 199.496 180.749 199.08 180.992L196.909 182.257C196.182 182.682 195.348 182.89 194.507 182.857Z" fill="white"/>
<path d="M229.886 181.829C228.765 181.778 227.705 181.304 226.919 180.504C226.443 180.001 226.088 179.395 225.882 178.734C225.675 178.073 225.621 177.374 225.724 176.689L226.014 174.402C226.076 173.915 226.019 173.42 225.847 172.96C225.675 172.5 225.394 172.089 225.028 171.762L223.291 170.21C222.779 169.773 222.371 169.227 222.096 168.612C221.821 167.997 221.687 167.328 221.704 166.655C221.742 165.657 222.117 164.702 222.769 163.946C223.421 163.19 224.31 162.678 225.29 162.494L227.73 162.03C228.212 161.939 228.665 161.731 229.05 161.425C229.434 161.12 229.738 160.725 229.936 160.276L230.845 158.211C231.17 157.427 231.705 156.748 232.391 156.249C233.077 155.75 233.887 155.45 234.733 155.382C235.562 155.335 236.387 155.524 237.112 155.927C237.838 156.331 238.434 156.932 238.831 157.662L240.024 159.839C240.261 160.27 240.598 160.637 241.008 160.908C241.418 161.179 241.887 161.347 242.376 161.396L244.692 161.63C245.364 161.683 246.015 161.885 246.599 162.221C247.183 162.557 247.685 163.02 248.067 163.575C248.622 164.404 248.879 165.397 248.795 166.392C248.712 167.386 248.294 168.323 247.609 169.048L245.909 170.857C245.572 171.214 245.328 171.648 245.197 172.121C245.066 172.593 245.051 173.091 245.155 173.57L245.645 175.839C245.802 176.494 245.812 177.175 245.674 177.834C245.536 178.493 245.253 179.114 244.846 179.65C244.231 180.438 243.366 180.993 242.393 181.223C241.42 181.454 240.398 181.345 239.495 180.916L237.246 179.856C236.803 179.647 236.315 179.549 235.825 179.571C235.335 179.592 234.858 179.732 234.434 179.979L232.288 181.229C231.561 181.654 230.728 181.862 229.886 181.829Z" fill="white"/>
<path d="M265.357 181.679C264.748 181.652 264.151 181.499 263.604 181.229C263.057 180.96 262.572 180.58 262.179 180.114C261.786 179.648 261.493 179.105 261.32 178.52C261.147 177.935 261.097 177.321 261.173 176.716L261.489 174.223C261.55 173.745 261.493 173.259 261.324 172.808C261.156 172.356 260.88 171.953 260.521 171.631L258.648 169.958C258.035 169.411 257.588 168.702 257.356 167.913C257.125 167.124 257.118 166.286 257.338 165.494C257.558 164.702 257.995 163.987 258.6 163.43C259.205 162.874 259.954 162.497 260.762 162.344L263.23 161.875C263.703 161.785 264.147 161.582 264.524 161.282C264.901 160.983 265.2 160.596 265.394 160.155L266.408 157.854C266.739 157.102 267.275 156.457 267.953 155.994C268.632 155.53 269.427 155.265 270.248 155.23C271.07 155.194 271.884 155.389 272.601 155.792C273.317 156.195 273.906 156.791 274.302 157.512L275.51 159.714C275.741 160.137 276.072 160.497 276.474 160.764C276.876 161.03 277.337 161.195 277.817 161.243L280.315 161.496C281.133 161.579 281.912 161.889 282.563 162.391C283.214 162.893 283.711 163.567 283.999 164.337C284.287 165.108 284.353 165.943 284.191 166.749C284.029 167.555 283.644 168.3 283.081 168.898L281.36 170.728C281.029 171.079 280.789 171.505 280.66 171.969C280.532 172.433 280.518 172.922 280.62 173.392L281.151 175.85C281.325 176.653 281.27 177.489 280.994 178.263C280.717 179.037 280.23 179.718 279.586 180.23C278.943 180.741 278.169 181.063 277.353 181.158C276.537 181.252 275.71 181.117 274.966 180.766L272.694 179.696C272.259 179.489 271.779 179.392 271.298 179.413C270.816 179.433 270.347 179.571 269.93 179.814L267.759 181.079C267.032 181.504 266.199 181.713 265.357 181.679Z" fill="white"/>
<path opacity="0.2" d="M299.859 180.743C299.25 180.716 298.653 180.563 298.106 180.293C297.559 180.024 297.074 179.644 296.681 179.178C296.288 178.712 295.995 178.169 295.822 177.584C295.649 176.999 295.599 176.385 295.675 175.78L295.991 173.287C296.052 172.809 295.995 172.323 295.826 171.872C295.658 171.42 295.382 171.017 295.023 170.695L293.15 169.022C292.537 168.474 292.089 167.766 291.858 166.977C291.626 166.188 291.62 165.35 291.84 164.558C292.06 163.766 292.497 163.051 293.102 162.494C293.707 161.937 294.456 161.561 295.264 161.408L297.732 160.939C298.205 160.849 298.649 160.646 299.026 160.346C299.403 160.046 299.702 159.66 299.896 159.219L300.909 156.918C301.241 156.166 301.777 155.521 302.455 155.058C303.134 154.594 303.929 154.329 304.75 154.294C305.572 154.258 306.386 154.453 307.103 154.856C307.819 155.259 308.408 155.855 308.804 156.576L310.012 158.778C310.243 159.201 310.574 159.561 310.976 159.828C311.378 160.094 311.839 160.259 312.318 160.307L314.817 160.56C315.635 160.643 316.414 160.953 317.065 161.455C317.716 161.957 318.213 162.631 318.501 163.401C318.788 164.172 318.855 165.007 318.693 165.813C318.53 166.619 318.146 167.364 317.583 167.962L315.862 169.792C315.531 170.143 315.291 170.569 315.162 171.033C315.033 171.497 315.02 171.986 315.122 172.456L315.653 174.914C315.826 175.717 315.772 176.553 315.496 177.327C315.219 178.101 314.732 178.782 314.088 179.294C313.445 179.805 312.671 180.127 311.855 180.222C311.038 180.316 310.212 180.181 309.468 179.83L307.196 178.76C306.76 178.553 306.281 178.456 305.799 178.477C305.318 178.497 304.849 178.635 304.432 178.878L302.261 180.143C301.534 180.568 300.701 180.777 299.859 180.743Z" fill="black"/>
<path opacity="0.2" d="M334.361 179.807C333.752 179.779 333.155 179.626 332.608 179.357C332.061 179.087 331.576 178.707 331.182 178.241C330.789 177.775 330.497 177.232 330.324 176.648C330.151 176.063 330.1 175.449 330.176 174.844L330.493 172.351C330.553 171.873 330.497 171.387 330.328 170.935C330.159 170.484 329.883 170.08 329.524 169.759L327.652 168.086C327.039 167.538 326.591 166.83 326.36 166.041C326.128 165.252 326.122 164.414 326.342 163.622C326.562 162.829 326.999 162.114 327.604 161.558C328.209 161.001 328.958 160.625 329.765 160.471L332.234 160.002C332.707 159.913 333.151 159.709 333.528 159.41C333.905 159.11 334.204 158.723 334.398 158.282L335.411 155.981C335.743 155.229 336.278 154.585 336.957 154.121C337.636 153.657 338.431 153.393 339.252 153.357C340.073 153.322 340.888 153.516 341.604 153.92C342.321 154.323 342.91 154.919 343.305 155.639L344.513 157.842C344.745 158.265 345.076 158.625 345.478 158.891C345.88 159.158 346.34 159.322 346.82 159.371L349.319 159.623C350.137 159.706 350.915 160.016 351.566 160.518C352.217 161.02 352.715 161.695 353.003 162.465C353.29 163.235 353.357 164.071 353.194 164.877C353.032 165.683 352.648 166.427 352.084 167.026L350.363 168.856C350.033 169.206 349.793 169.632 349.664 170.096C349.535 170.561 349.521 171.049 349.623 171.52L350.154 173.977C350.328 174.78 350.274 175.616 349.997 176.391C349.721 177.165 349.233 177.846 348.59 178.357C347.947 178.869 347.173 179.19 346.357 179.285C345.54 179.38 344.714 179.244 343.97 178.894L341.698 177.823C341.262 177.617 340.783 177.52 340.301 177.54C339.82 177.561 339.35 177.699 338.934 177.942L336.763 179.206C336.036 179.632 335.203 179.84 334.361 179.807Z" fill="black"/>
<path d="M554.173 474.214L555.183 451.517C565.704 445.893 577.44 442.922 589.37 442.862C572.951 456.288 575.003 482.168 563.87 500.223C560.355 505.827 555.624 510.569 550.027 514.096C544.431 517.623 538.113 519.845 531.54 520.598L517.8 529.012C515.914 518.5 516.33 507.704 519.018 497.368C521.706 487.032 526.603 477.402 533.371 469.141C537.214 464.544 541.62 460.449 546.486 456.954C549.777 465.632 554.173 474.214 554.173 474.214Z" fill="#F2F2F2"/>
<path d="M632.949 531H264.659C264.38 531 264.113 530.889 263.916 530.692C263.719 530.495 263.608 530.228 263.608 529.949C263.608 529.671 263.719 529.403 263.916 529.206C264.113 529.009 264.38 528.898 264.659 528.898H632.949C633.228 528.898 633.495 529.009 633.692 529.206C633.889 529.403 634 529.671 634 529.949C634 530.228 633.889 530.495 633.692 530.692C633.495 530.889 633.228 531 632.949 531Z" fill="#CACACA"/>
</g>
<defs>
<clipPath id="clip0_26_342">
<rect width="634" height="531" fill="white"/>
</clipPath>
</defs>
</svg>
