<?xml version="1.0" standalone="no"?>
<!DOCTYPE svg PUBLIC "-//W3C//DTD SVG 20010904//EN"
 "http://www.w3.org/TR/2001/REC-SVG-20010904/DTD/svg10.dtd">
<svg version="1.0" xmlns="http://www.w3.org/2000/svg"
 width="439.000000pt" height="98.000000pt" viewBox="0 0 439.000000 98.000000"
 preserveAspectRatio="xMidYMid meet">

<g transform="translate(0.000000,98.000000) scale(0.100000,-0.100000)"
fill="#ffff" stroke="none">
<path d="M1848 730 c-107 -32 -152 -128 -92 -200 31 -36 72 -59 185 -100 126
-46 161 -93 103 -139 -76 -60 -216 -47 -273 25 -11 14 -27 24 -36 22 -27 -5
28 -73 75 -92 53 -21 178 -21 228 0 116 48 135 162 37 219 -23 14 -77 37 -121
52 -116 41 -154 66 -154 102 0 38 45 77 99 86 50 8 117 -10 148 -41 24 -24 53
-32 53 -15 0 20 -59 68 -97 79 -45 13 -114 14 -155 2z"/>
<path d="M3417 724 c-72 -22 -150 -102 -171 -174 -26 -92 0 -184 71 -252 74
-71 211 -93 309 -49 62 27 123 86 107 102 -8 8 -22 0 -51 -29 -158 -158 -406
-5 -352 216 13 54 64 123 109 146 74 39 171 23 240 -40 23 -20 42 -30 49 -25
9 5 0 20 -32 49 -72 67 -176 87 -279 56z"/>
<path d="M315 711 c-72 -33 -105 -86 -105 -168 0 -106 79 -173 204 -173 69 0
111 14 154 53 30 28 28 37 -12 37 -24 0 -43 -9 -66 -30 -63 -58 -162 -30 -190
55 -6 19 -9 39 -5 45 4 6 68 10 166 10 158 0 159 0 159 23 -1 30 -33 98 -58
120 -52 47 -176 61 -247 28z m170 -33 c26 -23 58 -96 48 -111 -7 -11 -232 -7
-239 4 -10 18 17 78 47 104 41 33 107 35 144 3z"/>
<path d="M700 481 l0 -251 45 0 45 0 0 65 0 65 45 0 c40 0 51 -6 99 -50 74
-66 104 -80 173 -80 57 0 57 0 33 16 -14 10 -48 39 -77 67 l-51 50 41 21 c62
31 100 91 100 158 0 70 -24 119 -75 155 -41 28 -43 28 -210 31 l-168 3 0 -250z
m290 201 c71 -36 97 -141 52 -214 -34 -54 -94 -80 -179 -76 l-68 3 -3 153 -3
152 83 0 c59 0 93 -5 118 -18z"/>
<path d="M1335 711 c-73 -33 -105 -86 -105 -169 1 -107 77 -172 203 -172 71 0
112 14 155 53 31 29 28 37 -18 37 -22 0 -40 -5 -40 -10 0 -18 -64 -50 -102
-50 -24 0 -46 8 -67 25 -29 25 -57 86 -47 103 3 5 77 7 166 4 l160 -5 0 29 c0
37 -31 103 -58 127 -52 47 -176 61 -247 28z m170 -33 c14 -13 32 -41 39 -63
l14 -40 -120 -3 c-67 -1 -123 -1 -125 2 -11 11 21 77 48 101 41 33 107 35 144
3z"/>
<path d="M2220 481 l0 -251 45 0 45 0 0 65 0 65 108 0 c128 0 179 19 225 86
56 80 32 197 -50 254 -35 24 -45 25 -205 28 l-168 3 0 -250z m290 201 c99 -49
99 -204 0 -265 -28 -17 -50 -21 -115 -22 l-80 0 -3 153 -3 152 83 0 c59 0 93
-5 118 -18z"/>
<path d="M2877 716 c-50 -18 -76 -42 -98 -91 -24 -51 -24 -99 0 -150 34 -75
90 -105 193 -105 70 0 113 16 152 59 l30 31 -38 0 c-28 0 -47 -8 -73 -30 -44
-39 -108 -42 -148 -7 -25 22 -58 95 -48 109 2 5 76 8 164 8 l159 0 0 24 c0
122 -154 201 -293 152z m162 -41 c31 -27 57 -87 46 -106 -7 -11 -233 -10 -240
1 -8 13 27 87 50 108 37 32 103 30 144 -3z"/>
<path d="M3760 715 c0 -12 18 -15 105 -15 l105 0 0 -235 0 -235 40 0 40 0 0
235 0 235 90 0 c73 0 90 3 90 15 0 13 -33 15 -235 15 -202 0 -235 -2 -235 -15z"/>
<path d="M389 300 l-24 -25 25 -25 25 -25 25 25 25 25 -26 25 -26 25 -24 -25z"/>
<path d="M1408 300 l-25 -25 26 -25 26 -25 25 25 25 25 -26 25 -26 25 -25 -25z"/>
<path d="M2940 300 l-25 -25 26 -25 26 -26 24 26 24 25 -25 25 -25 25 -25 -25z"/>
</g>
</svg>
