<svg width="698" height="460" viewBox="0 0 698 460" fill="none" xmlns="http://www.w3.org/2000/svg">
<g clip-path="url(#clip0_19_1995)">
<path d="M412.149 30.3599H335.009V31.8411H412.149V30.3599Z" fill="#CCCCCC"/>
<path d="M274.766 30.3599H30.1211V31.8411H274.766V30.3599Z" fill="#CCCCCC"/>
<path d="M30.1211 61.4602C46.7566 61.4602 60.2423 47.8675 60.2423 31.1002C60.2423 14.3329 46.7566 0.740234 30.1211 0.740234C13.4857 0.740234 0 14.3329 0 31.1002C0 47.8675 13.4857 61.4602 30.1211 61.4602Z" fill="#DC1D08"/>
<path d="M167.504 61.4602C184.14 61.4602 197.625 47.8675 197.625 31.1002C197.625 14.3329 184.14 0.740234 167.504 0.740234C150.869 0.740234 137.383 14.3329 137.383 31.1002C137.383 47.8675 150.869 61.4602 167.504 61.4602Z" fill="#3F3D56"/>
<path d="M304.884 62.202C298.781 62.202 292.815 60.3779 287.741 56.9605C282.667 53.5431 278.712 48.6858 276.376 43.0028C274.041 37.3199 273.43 31.0665 274.621 25.0335C275.811 19.0005 278.75 13.4588 283.065 9.10928C287.381 4.75973 292.879 1.79765 298.864 0.597613C304.85 -0.602425 311.054 0.0134692 316.692 2.36743C322.33 4.72139 327.149 8.70768 330.54 13.8222C333.931 18.9367 335.74 24.9498 335.74 31.101C335.74 39.3495 332.489 47.2601 326.703 53.0927C320.916 58.9253 313.068 62.202 304.884 62.202ZM304.884 1.4812C299.072 1.4812 293.39 3.21838 288.558 6.47304C283.725 9.72771 279.958 14.3537 277.734 19.766C275.51 25.1783 274.928 31.1338 276.062 36.8795C277.196 42.6252 279.994 47.9029 284.104 52.0453C288.214 56.1877 293.45 59.0087 299.151 60.1516C304.851 61.2945 310.76 60.7079 316.13 58.4661C321.499 56.2242 326.089 52.4278 329.318 47.5569C332.547 42.6859 334.271 36.9592 334.271 31.101C334.271 23.2453 331.175 15.7114 325.664 10.1566C320.152 4.60186 312.678 1.4812 304.884 1.4812Z" fill="#CCCCCC"/>
<path d="M442.267 62.202C436.164 62.202 430.198 60.3779 425.124 56.9605C420.05 53.5431 416.095 48.6858 413.759 43.0028C411.424 37.3199 410.813 31.0665 412.004 25.0335C413.194 19.0005 416.133 13.4588 420.448 9.10928C424.764 4.75973 430.262 1.79765 436.247 0.597613C442.233 -0.602425 448.437 0.0134692 454.075 2.36743C459.713 4.72139 464.533 8.70768 467.923 13.8222C471.314 18.9367 473.123 24.9498 473.123 31.101C473.123 39.3495 469.872 47.2601 464.086 53.0927C458.299 58.9253 450.451 62.202 442.267 62.202ZM442.267 1.4812C436.455 1.4812 430.773 3.21838 425.941 6.47304C421.108 9.72771 417.341 14.3537 415.117 19.766C412.893 25.1783 412.311 31.1338 413.445 36.8795C414.579 42.6252 417.378 47.9029 421.487 52.0453C425.597 56.1877 430.833 59.0087 436.534 60.1516C442.234 61.2945 448.143 60.7079 453.513 58.4661C458.882 56.2242 463.472 52.4278 466.701 47.5569C469.93 42.6859 471.654 36.9592 471.654 31.101C471.654 27.2113 470.894 23.3596 469.417 19.766C467.94 16.1724 465.775 12.9071 463.047 10.1566C460.318 7.40619 457.078 5.22441 453.513 3.73587C449.947 2.24734 446.126 1.4812 442.267 1.4812Z" fill="#CCCCCC"/>
<path d="M27.8022 40.1525C27.2731 40.1529 26.7581 39.9799 26.3351 39.6596L26.309 39.6399L20.7805 35.3778C20.2634 34.9782 19.925 34.388 19.8398 33.7369C19.7545 33.0858 19.9293 32.4273 20.3257 31.9061C20.7222 31.3849 21.3078 31.0438 21.9537 30.9579C22.5997 30.8719 23.2531 31.0481 23.7701 31.4477L27.3506 34.2154L35.8117 23.0888C36.208 22.5678 36.7933 22.2269 37.439 22.141C38.0846 22.055 38.7376 22.231 39.2545 22.6304L39.2024 22.7035L39.2562 22.6304C39.7725 23.0303 40.1103 23.6204 40.1955 24.2712C40.2806 24.9219 40.106 25.5801 39.7101 26.1013L29.7575 39.1823C29.527 39.4839 29.2306 39.7279 28.8913 39.8953C28.5521 40.0627 28.1791 40.149 27.8014 40.1475L27.8022 40.1525Z" fill="white"/>
<path d="M535.148 160.985C535.711 161.244 536.253 161.548 536.768 161.895L588.242 139.752L590.078 126.085L610.646 125.958L609.431 157.305L541.49 175.417C541.347 175.893 541.175 176.359 540.976 176.814C539.993 178.926 538.414 180.699 536.435 181.91C534.456 183.12 532.167 183.714 529.854 183.618C527.541 183.521 525.308 182.738 523.436 181.366C521.563 179.995 520.134 178.096 519.329 175.909C518.523 173.722 518.377 171.343 518.908 169.072C519.439 166.801 520.624 164.739 522.314 163.145C524.004 161.551 526.124 160.496 528.407 160.112C530.69 159.728 533.035 160.032 535.147 160.987L535.148 160.985Z" fill="#FEB8B8"/>
<path d="M618.126 445.033H604.055L597.362 390.333H618.127L618.126 445.033Z" fill="#FEB8B8"/>
<path d="M594.006 440.981H621.14V458.196H576.921C576.921 453.629 578.721 449.249 581.925 446.019C585.129 442.79 589.474 440.976 594.006 440.976V440.981Z" fill="#2F2E41"/>
<path d="M672.845 441.027L658.844 442.415L646.863 388.64L667.528 386.594L672.845 441.027Z" fill="#FEB8B8"/>
<path d="M648.439 439.38L675.439 436.7L677.113 453.834L633.115 458.202C632.671 453.658 634.036 449.123 636.91 445.593C639.783 442.063 643.93 439.828 648.438 439.38H648.439Z" fill="#2F2E41"/>
<path d="M622.042 68.0661C637.609 68.0661 650.229 55.3463 650.229 39.6556C650.229 23.9649 637.609 11.2451 622.042 11.2451C606.475 11.2451 593.855 23.9649 593.855 39.6556C593.855 55.3463 606.475 68.0661 622.042 68.0661Z" fill="#FEB8B8"/>
<path d="M600.911 433.97C599.701 433.973 598.53 433.544 597.603 432.761C596.676 431.978 596.053 430.891 595.844 429.69C588.566 388.951 564.757 255.716 564.187 252.022C564.174 251.938 564.168 251.852 564.168 251.766V241.831C564.167 241.469 564.279 241.116 564.488 240.822L567.633 236.386C567.782 236.172 567.978 235.996 568.206 235.87C568.434 235.745 568.687 235.674 568.946 235.663C586.877 234.816 645.59 232.332 648.427 235.904C651.275 239.49 650.263 250.372 650.033 252.515L650.045 252.739L676.425 422.778C676.631 424.134 676.299 425.518 675.501 426.63C674.703 427.741 673.502 428.491 672.16 428.717L655.684 431.453C654.457 431.652 653.2 431.4 652.141 430.743C651.083 430.087 650.294 429.069 649.917 427.875C644.821 411.463 627.734 356.252 621.812 334.888C621.78 334.747 621.697 334.624 621.578 334.542C621.46 334.46 621.316 334.426 621.174 334.447C621.032 334.468 620.903 334.541 620.813 334.654C620.723 334.766 620.677 334.908 620.686 335.052C620.982 355.418 621.697 407.375 621.949 425.321L621.975 427.254C621.986 428.563 621.509 429.828 620.64 430.799C619.77 431.771 618.57 432.378 617.278 432.501L601.391 433.952C601.231 433.966 601.071 433.972 600.911 433.97Z" fill="#2F2E41"/>
<path d="M604.153 79.238C599.234 82.1856 596.29 87.6011 594.601 93.1217C591.474 103.326 589.592 113.875 588.996 124.538L587.211 156.461L565.112 241.101C584.266 257.435 595.312 253.722 621.095 240.361C646.877 227.001 649.823 244.816 649.823 244.816L654.978 172.799L662.344 94.1034C660.69 92.0967 658.818 90.2833 656.764 88.697C649.956 83.3598 642.035 79.6497 633.597 77.8463C625.16 76.0429 616.427 76.1932 608.056 78.2859L604.153 79.238Z" fill="#E6E6E6"/>
<path d="M596.976 178.078C597.57 178.302 598.145 178.573 598.697 178.888L649.595 153.208L650.439 139.297L671.434 137.838L672.559 169.549L604.543 192.223C603.988 194.625 602.72 196.8 600.909 198.459C599.098 200.117 596.828 201.181 594.402 201.507C591.977 201.834 589.51 201.408 587.33 200.287C585.15 199.166 583.361 197.403 582.2 195.231C581.039 193.06 580.561 190.584 580.83 188.132C581.1 185.681 582.103 183.37 583.707 181.507C585.312 179.644 587.44 178.318 589.811 177.705C592.181 177.092 594.681 177.22 596.977 178.074L596.976 178.078Z" fill="#FEB8B8"/>
<path d="M661.977 94.4583C674.499 98.9126 676.706 147.176 676.706 147.176C661.974 139.009 644.295 152.373 644.295 152.373C644.295 152.373 640.613 139.75 636.193 123.418C634.858 118.823 634.699 113.963 635.729 109.29C636.759 104.617 638.946 100.282 642.085 96.6896C642.085 96.6896 649.454 90.0016 661.977 94.4583Z" fill="#E6E6E6"/>
<path d="M647.311 47.1668C643.799 44.335 639.008 49.4802 639.008 49.4802L636.199 24C636.199 24 618.64 26.1204 607.399 23.2919C596.159 20.4634 594.405 33.5609 594.405 33.5609C593.825 28.2715 593.708 22.941 594.054 17.6308C594.756 11.2591 603.887 4.88746 620.042 0.639398C636.197 -3.60866 644.625 14.7991 644.625 14.7991C655.87 20.4585 650.827 50.0019 647.311 47.1668Z" fill="#2F2E41"/>
<path d="M698 458.201H96.9915V460H698V458.201Z" fill="#E6E6E6"/>
<path d="M154.97 426.43C157.542 427.341 160.303 427.569 162.988 427.092C165.673 426.616 168.19 425.45 170.298 423.708C175.667 419.166 177.35 411.684 178.719 404.755L182.77 384.263L174.289 390.149C168.19 394.381 161.954 398.75 157.731 404.881C153.507 411.012 151.664 419.382 155.057 426.015" fill="#E6E6E6"/>
<path d="M156.28 452.666C155.212 444.827 154.114 436.888 154.864 428.965C155.529 421.929 157.658 415.057 161.994 409.422C164.296 406.437 167.096 403.88 170.27 401.864C171.097 401.338 171.859 402.66 171.035 403.184C165.543 406.681 161.295 411.846 158.903 417.934C156.262 424.704 155.838 432.084 156.295 439.275C156.57 443.624 157.153 447.944 157.741 452.259C157.787 452.454 157.758 452.659 157.66 452.834C157.561 453.008 157.401 453.139 157.211 453.198C157.017 453.251 156.81 453.224 156.636 453.124C156.461 453.025 156.333 452.859 156.278 452.664L156.28 452.666Z" fill="#F2F2F2"/>
<path d="M163.964 440.089C165.067 441.778 166.583 443.153 168.366 444.081C170.149 445.009 172.139 445.458 174.144 445.385C179.298 445.139 183.595 441.513 187.462 438.074L198.903 427.893L191.332 427.529C185.887 427.266 180.301 427.021 175.112 428.713C169.922 430.406 165.143 434.479 164.195 439.886" fill="#E6E6E6"/>
<path d="M153.263 457.172C158.398 448.007 164.362 437.821 175.013 434.566C177.974 433.664 181.079 433.34 184.161 433.614C185.132 433.696 184.889 435.207 183.916 435.123C178.75 434.691 173.595 436.065 169.317 439.016C165.2 441.84 161.995 445.766 159.283 449.931C157.621 452.477 156.133 455.14 154.644 457.795C154.17 458.643 152.784 458.031 153.263 457.172Z" fill="#F2F2F2"/>
<path d="M515.456 192.725H258.152C256.889 192.724 255.678 192.217 254.784 191.317C253.891 190.417 253.389 189.196 253.387 187.923V123.591C253.389 122.317 253.891 121.097 254.784 120.196C255.678 119.296 256.889 118.79 258.152 118.788H515.456C516.719 118.79 517.93 119.296 518.823 120.196C519.716 121.097 520.219 122.317 520.22 123.591V187.923C520.219 189.196 519.716 190.417 518.823 191.317C517.93 192.217 516.719 192.724 515.456 192.725ZM258.152 120.71C257.394 120.71 256.667 121.014 256.131 121.555C255.595 122.095 255.294 122.827 255.293 123.591V187.924C255.293 188.688 255.595 189.42 256.131 189.961C256.667 190.501 257.394 190.805 258.152 190.806H515.456C516.214 190.805 516.941 190.501 517.477 189.961C518.013 189.42 518.314 188.688 518.315 187.924V123.591C518.314 122.827 518.013 122.094 517.477 121.554C516.941 121.013 516.214 120.709 515.456 120.709L258.152 120.71Z" fill="#E6E6E6"/>
<path d="M342.959 140.245C342.101 140.245 341.279 140.589 340.672 141.2C340.065 141.812 339.724 142.641 339.724 143.506C339.724 144.371 340.065 145.2 340.672 145.811C341.279 146.423 342.101 146.766 342.959 146.766H495.462C496.32 146.766 497.143 146.423 497.75 145.811C498.357 145.2 498.697 144.371 498.697 143.506C498.697 142.641 498.357 141.812 497.75 141.2C497.143 140.589 496.32 140.245 495.462 140.245H342.959Z" fill="#E6E6E6"/>
<path d="M342.959 159.81C342.101 159.81 341.279 160.153 340.672 160.765C340.065 161.376 339.724 162.205 339.724 163.07C339.724 163.935 340.065 164.764 340.672 165.376C341.279 165.987 342.101 166.331 342.959 166.331H408.582C409.44 166.331 410.262 165.987 410.869 165.376C411.476 164.764 411.817 163.935 411.817 163.07C411.817 162.205 411.476 161.376 410.869 160.765C410.262 160.153 409.44 159.81 408.582 159.81H342.959Z" fill="#E6E6E6"/>
<path d="M298.315 172.703C309.034 172.703 317.724 163.944 317.724 153.14C317.724 142.335 309.034 133.576 298.315 133.576C287.595 133.576 278.905 142.335 278.905 153.14C278.905 163.944 287.595 172.703 298.315 172.703Z" fill="#E6E6E6"/>
<path d="M295.264 164.013C294.612 164.014 293.977 163.801 293.455 163.406L293.423 163.382L286.61 158.129C285.973 157.636 285.555 156.909 285.45 156.106C285.344 155.304 285.56 154.492 286.048 153.849C286.537 153.206 287.258 152.785 288.055 152.679C288.851 152.573 289.657 152.79 290.295 153.282L294.707 156.692L305.134 142.981C305.622 142.339 306.344 141.919 307.139 141.813C307.935 141.707 308.74 141.924 309.377 142.416L309.312 142.506L309.379 142.416C310.015 142.909 310.431 143.636 310.536 144.437C310.641 145.239 310.427 146.05 309.939 146.693L297.675 162.822C297.391 163.194 297.026 163.494 296.609 163.7C296.191 163.907 295.732 164.013 295.267 164.012L295.264 164.013Z" fill="#DC1D08"/>
</g>
<defs>
<clipPath id="clip0_19_1995">
<rect width="698" height="460" fill="white"/>
</clipPath>
</defs>
</svg>
